<?xml version="1.0" encoding="UTF-8"?>
<svg width="358px" height="284px" viewBox="0 0 358 284" version="1.1" xmlns="http://www.w3.org/2000/svg" xmlns:xlink="http://www.w3.org/1999/xlink">
    <!-- Generator: Sketch 46.2 (44496) - http://www.bohemiancoding.com/sketch -->
    <title>solution</title>
    <desc>Created with Sketch.</desc>
    <defs>
        <rect id="path-1" x="0" y="0" width="160" height="103" rx="10"></rect>
        <filter x="-11.2%" y="-13.6%" width="121.9%" height="134.0%" filterUnits="objectBoundingBox" id="filter-2">
            <feOffset dx="0" dy="4" in="SourceAlpha" result="shadowOffsetOuter1"></feOffset>
            <feGaussianBlur stdDeviation="5" in="shadowOffsetOuter1" result="shadowBlurOuter1"></feGaussianBlur>
            <feColorMatrix values="0 0 0 0 0   0 0 0 0 0   0 0 0 0 0  0 0 0 0.5 0" type="matrix" in="shadowBlurOuter1" result="shadowMatrixOuter1"></feColorMatrix>
            <feMerge>
                <feMergeNode in="shadowMatrixOuter1"></feMergeNode>
                <feMergeNode in="SourceGraphic"></feMergeNode>
            </feMerge>
        </filter>
        <path d="M10,-1.77700736e-16 L150,-1.77700736e-16 L150,-3.55271368e-15 C155.522847,1.0148566e-14 160,4.4771525 160,10 L160,93 L160,93 C160,98.5228475 155.522847,103 150,103 L111.959284,103 L10,103 L10,103 C4.4771525,103 6.76353751e-16,98.5228475 0,93 L0,10 L-1.77635684e-15,10 C-4.90534757e-15,4.4771525 4.4771525,-2.5381715e-15 10,-3.55271368e-15 Z" id="path-3"></path>
        <rect id="path-4" x="15" y="53" width="13" height="13" rx="6.5"></rect>
        <filter x="-10.6%" y="-12.6%" width="121.9%" height="134.0%" filterUnits="objectBoundingBox" id="filter-5">
            <feOffset dx="0" dy="4" in="SourceAlpha" result="shadowOffsetOuter1"></feOffset>
            <feGaussianBlur stdDeviation="5" in="shadowOffsetOuter1" result="shadowBlurOuter1"></feGaussianBlur>
            <feColorMatrix values="0 0 0 0 0   0 0 0 0 0   0 0 0 0 0  0 0 0 0.5 0" type="matrix" in="shadowBlurOuter1" result="shadowMatrixOuter1"></feColorMatrix>
            <feMerge>
                <feMergeNode in="shadowMatrixOuter1"></feMergeNode>
                <feMergeNode in="SourceGraphic"></feMergeNode>
            </feMerge>
        </filter>
        <path d="M10,0.000401486094 L150,0.000401486094 L150,0.000401486094 C155.522847,0.000401486094 160,4.47755399 160,10.0004015 L160,93 L160,93 C160,98.5228475 155.522847,103 150,103 L111.959284,103 L10,103 L10,103 C4.4771525,103 8.0342647e-15,98.5228475 0,93 L0,10.0004015 L1.77635684e-15,10.0004015 C1.10000309e-15,4.47755399 4.4771525,0.000401486094 10,0.000401486094 Z" id="path-6"></path>
        <rect id="path-7" x="0" y="103" width="160" height="64" rx="10"></rect>
    </defs>
    <g id="Welcome" stroke="none" stroke-width="1" fill="none" fill-rule="evenodd">
        <g id="Desktop" transform="translate(-587.000000, -1824.000000)">
            <g id="Avant-apres" transform="translate(-14.000000, 1181.000000)">
                <g id="aprés" transform="translate(601.000000, 376.000000)">
                    <g id="solution" transform="translate(0.000000, 267.000000)">
                        <g id="Group">
                            <g id="Rectangle-4">
                                <use fill="#FFFFFF" fill-rule="evenodd" xlink:href="#path-1"></use>
                                <rect stroke="#15408D" stroke-width="1.5" x="0.75" y="0.75" width="158.5" height="101.5" rx="10"></rect>
                            </g>
                            <rect id="Rectangle-6" fill="#46CE92" x="22" y="22" width="16" height="48" rx="8"></rect>
                            <rect id="Rectangle-6" fill="#46CE92" x="58" y="30" width="16" height="40" rx="8"></rect>
                            <rect id="Rectangle-6" fill="#46CE92" x="95" y="38" width="16" height="32" rx="8"></rect>
                            <rect id="Rectangle-6" fill="#46CE92" x="131" y="46" width="16" height="24" rx="8"></rect>
                            <text id="M-3" font-family="Lato-Light, Lato" font-size="10" font-weight="300" letter-spacing="2.14285707" fill-opacity="0.5" fill="#15408D">
                                <tspan x="17.1782144" y="89">M-3</tspan>
                            </text>
                            <text id="M-2" font-family="Lato-Light, Lato" font-size="10" font-weight="300" letter-spacing="2.14285707" fill-opacity="0.5" fill="#15408D">
                                <tspan x="56.1782144" y="89">M-2</tspan>
                            </text>
                            <text id="M-1" font-family="Lato-Light, Lato" font-size="10" font-weight="300" letter-spacing="2.14285707" fill-opacity="0.5" fill="#15408D">
                                <tspan x="95.1782144" y="89">M-1</tspan>
                            </text>
                            <text id="M" font-family="Lato-Light, Lato" font-size="10" font-weight="300" letter-spacing="2.14285707" fill-opacity="0.5" fill="#15408D">
                                <tspan x="133.383571" y="89">M</tspan>
                            </text>
                            <path d="M9.39044944,30 L147.609551,30" id="Line-3" stroke="#979797" stroke-linecap="square"></path>
                        </g>
                        <g id="check" filter="url(#filter-2)" transform="translate(188.000000, 64.000000)">
                            <g id="Rectangle-4">
                                <use fill="#FFFFFF" fill-rule="evenodd" xlink:href="#path-3"></use>
                                <path stroke="#15408D" stroke-width="1.5" d="M10,0.75 C4.89136606,0.75 0.75,4.89136606 0.75,10 L0.75,93 C0.75,98.1086339 4.89136606,102.25 10,102.25 L150,102.25 C155.108634,102.25 159.25,98.1086339 159.25,93 L159.25,10 C159.25,4.89136606 155.108634,0.75 150,0.75 L10,0.75 Z"></path>
                            </g>
                            <rect id="Rectangle-5" fill="#15408D" x="38" y="24" width="94" height="5" rx="2.5"></rect>
                            <rect id="Rectangle-7" stroke="#15408D" x="15.5" y="20.5" width="12" height="12" rx="6"></rect>
                            <rect id="Rectangle-7" stroke="#15408D" x="15.5" y="20.5" width="12" height="12" rx="6"></rect>
                            <rect id="Rectangle-5" fill="#15408D" x="38" y="40" width="94" height="5" rx="2.5"></rect>
                            <rect id="Rectangle-7" stroke="#15408D" x="15.5" y="37.5" width="12" height="12" rx="6"></rect>
                            <rect id="Rectangle-5" fill="#15408D" x="38" y="57" width="94" height="5" rx="2.5"></rect>
                            <g id="Rectangle-7">
                                <use fill="#15408D" fill-rule="evenodd" xlink:href="#path-4"></use>
                                <rect stroke="#15408D" stroke-width="1" x="15.5" y="53.5" width="12" height="12" rx="6"></rect>
                            </g>
                            <rect id="Rectangle-5" fill="#15408D" x="38" y="75" width="94" height="5" rx="2.5"></rect>
                            <rect id="Rectangle-7" stroke="#15408D" x="15.5" y="71.5" width="12" height="12" rx="6"></rect>
                        </g>
                        <g filter="url(#filter-5)" transform="translate(70.000000, 167.000000)">
                            <g id="Rectangle-4">
                                <use fill="#FFFFFF" fill-rule="evenodd" xlink:href="#path-6"></use>
                                <path stroke="#15408D" stroke-width="1.5" d="M10,0.750401486 C4.89136606,0.750401486 0.75,4.89176755 0.75,10.0004015 L0.75,93 C0.75,98.1086339 4.89136606,102.25 10,102.25 L150,102.25 C155.108634,102.25 159.25,98.1086339 159.25,93 L159.25,10.0004015 C159.25,4.89176755 155.108634,0.750401486 150,0.750401486 L10,0.750401486 Z"></path>
                            </g>
                            <text id="Envira-Gallery---FontAwesome" font-family="FontAwesome" font-size="64" font-weight="normal" fill="#46CE92">
                                <tspan x="48" y="75"></tspan>
                            </text>
                        </g>
                        <g id="Rectangle-4">
                            <use fill="#15408D" fill-rule="evenodd" xlink:href="#path-7"></use>
                            <rect stroke="#15408D" stroke-width="1.5" x="0.75" y="103.75" width="158.5" height="62.5" rx="10"></rect>
                        </g>
                        <text id="Bravo-!-Conso-en-des" font-family="Lato-Black, Lato" font-size="12" font-weight="700" letter-spacing="2.57142854" fill="#FFFFFF">
                            <tspan x="13" y="124">Bravo ! Conso</tspan>
                            <tspan x="13" y="139">en dessous </tspan>
                            <tspan x="13" y="154">de la moyenne.</tspan>
                        </text>
                    </g>
                </g>
            </g>
        </g>
    </g>
</svg>