<?xml version="1.0" encoding="UTF-8"?>
<svg width="103px" height="79px" viewBox="0 0 103 79" version="1.1" xmlns="http://www.w3.org/2000/svg" xmlns:xlink="http://www.w3.org/1999/xlink">
    <!-- Generator: Sketch 46.2 (44496) - http://www.bohemiancoding.com/sketch -->
    <title>Group 4</title>
    <desc>Created with Sketch.</desc>
    <defs>
        <path d="M10,0 L73,0 L73,0 C78.5228475,-1.01448797e-15 83,4.4771525 83,10 L83,49 L83,49 C83,54.5228475 78.5228475,59 73,59 L73,59 L54.399044,59 L10,59 L10,59 C4.4771525,59 6.76353751e-16,54.5228475 0,49 L0,10 L0,10 C-6.76353751e-16,4.4771525 4.4771525,2.79084481e-15 10,1.77635684e-15 Z" id="path-1"></path>
        <filter x="-20.5%" y="-22.0%" width="141.0%" height="157.6%" filterUnits="objectBoundingBox" id="filter-2">
            <feOffset dx="0" dy="4" in="SourceAlpha" result="shadowOffsetOuter1"></feOffset>
            <feGaussianBlur stdDeviation="5" in="shadowOffsetOuter1" result="shadowBlurOuter1"></feGaussianBlur>
            <feComposite in="shadowBlurOuter1" in2="SourceAlpha" operator="out" result="shadowBlurOuter1"></feComposite>
            <feColorMatrix values="0 0 0 0 0   0 0 0 0 0   0 0 0 0 0  0 0 0 0.5 0" type="matrix" in="shadowBlurOuter1"></feColorMatrix>
        </filter>
    </defs>
    <g id="Welcome" stroke="none" stroke-width="1" fill="none" fill-rule="evenodd">
        <g id="Desktop" transform="translate(-211.000000, -1661.000000)">
            <g id="Avant-apres" transform="translate(-14.000000, 1181.000000)">
                <g id="avant">
                    <g id="Courrier" transform="translate(224.000000, 486.000000)">
                        <g id="Group-4" transform="translate(11.000000, 0.000000)">
                            <g id="Rectangle-4">
                                <use fill="black" fill-opacity="1" filter="url(#filter-2)" xlink:href="#path-1"></use>
                                <use fill="#FFFFFF" fill-rule="evenodd" xlink:href="#path-1"></use>
                                <path stroke="#B9B9B9" stroke-width="1.5" d="M10,0.75 C4.89136606,0.75 0.75,4.89136606 0.75,10 L0.75,49 C0.75,54.1086339 4.89136606,58.25 10,58.25 L73,58.25 C78.1086339,58.25 82.25,54.1086339 82.25,49 L82.25,10 C82.25,4.89136606 78.1086339,0.75 73,0.75 L10,0.75 Z"></path>
                            </g>
                            <rect id="Rectangle-5" fill="#46CE92" x="34" y="26" width="30" height="7" rx="3.5"></rect>
                            <rect id="Rectangle-5" fill="#46CE92" x="34" y="37" width="15" height="7" rx="3.5"></rect>
                        </g>
                    </g>
                </g>
            </g>
        </g>
    </g>
</svg>